<?xml version="1.0" encoding="utf-8"?>
<!-- Generator: Adobe Illustrator 25.2.0, SVG Export Plug-In . SVG Version: 6.00 Build 0)  -->
<svg version="1.1" id="Layer_1" focusable="false" xmlns="http://www.w3.org/2000/svg" xmlns:xlink="http://www.w3.org/1999/xlink"
	 x="0px" y="0px" viewBox="0 0 512 512" style="enable-background:new 0 0 512 512;" xml:space="preserve">
<style type="text/css">
	.st0{opacity:0.2;enable-background:new    ;}
	.st1{display:none;}
	.st2{display:inline;}
	.st3{fill:#FFFFFF;}
	.st4{display:inline;fill:#FFFFFF;}
</style>
<path class="st0" d="M256,8C119,8,8,119,8,256s111,248,248,248s248-111,248-248S393,8,256,8z"/>
<g transform="translate(254.8 256)" class="st1">
	<g transform="scale(0.6, 0.6)" class="st2">
		<path class="st3" d="M28-232.1c0-23.8-30.6-32.8-44.1-13C-140-64.1,36-56,36,32c0,35.6-29.1,64.5-64.9,64C-64,95.5-92,66.2-92,31
			v-85.5c0-21.7-26.5-32.2-41.4-16.5C-160.2-42.8-188,5.3-188,64c0,105.9,86.1,192,192,192s192-86.1,192-192
			C196-106.3,28-129,28-232.1z"/>
	</g>
</g>
<g>
	<g>
		<path class="st3" d="M359.6,105.2c-1-1.8-2.9-2.8-4.9-2.8H238c-2.4,0-4.6,1.5-5.4,3.9l-50,148.2c-0.6,1.7-0.3,3.6,0.8,5.1
			c1.1,1.5,2.8,2.4,4.6,2.4h47.4L180.8,408c-1,2.6,0.1,5.5,2.5,6.9c0.9,0.5,1.9,0.8,2.8,0.8c1.6,0,3.2-0.7,4.3-2l151.9-181.5
			c1.4-1.7,1.7-4,0.8-6c-0.9-2-2.9-3.3-5.1-3.3h-43.9l65.4-111.9C360.6,109.2,360.6,107,359.6,105.2z"/>
	</g>
</g>
<g class="st1">
	<path class="st4" d="M183.4,419.5l106.3-106.8c4.4-4.4,1.2-11.8-4.9-11.8h-8.5c-5.8,0-9-6.7-5.4-11.2l56.4-71.1
		c3.6-4.5,0.4-11.2-5.4-11.2h-28.3c-5.7,0-9-6.5-5.5-11.1l72-95.8c3.4-4.6,0.2-11.1-5.5-11.1H240.6c-2.6,0-5.1,1.5-6.2,3.8
		l-55.7,112.7c-2.3,4.6,1.1,10,6.2,10h25.7c5.1,0,8.5,5.4,6.2,10l-38.1,77c-2.3,4.6,1.1,10,6.2,10h24.2c5.1,0,8.4,5.3,6.2,9.9
		l-43,88.7C168.9,418.6,177.9,425,183.4,419.5z"/>
</g>
</svg>
