<?xml version="1.0" encoding="utf-8"?>
<!-- Generator: Adobe Illustrator 25.2.0, SVG Export Plug-In . SVG Version: 6.00 Build 0)  -->
<svg version="1.1"
	 id="Layer_1" xmlns:cc="http://creativecommons.org/ns#" xmlns:dc="http://purl.org/dc/elements/1.1/" xmlns:rdf="http://www.w3.org/1999/02/22-rdf-syntax-ns#" xmlns:svg="http://www.w3.org/2000/svg"
	 xmlns="http://www.w3.org/2000/svg" xmlns:xlink="http://www.w3.org/1999/xlink" x="0px" y="0px" viewBox="0 0 10 10"
	 style="enable-background:new 0 0 10 10;" xml:space="preserve">
<style type="text/css">
	.st0{fill:#06BF7F;}
</style>
<g>
	<path class="st0" d="M6.7,4.1c0,0.4-0.1,0.7-0.3,1l0,0C5.7,6,5.7,6.2,5.7,6.6l0,0.1l0,0H4.4c0,0-0.1,0-0.1-0.1
		c0-0.4-0.1-0.6-0.7-1.4l0,0c-0.2-0.3-0.3-0.7-0.3-1c0-1,0.8-1.7,1.7-1.7C6,2.3,6.7,3.1,6.7,4.1 M7.1,4.1C7.1,2.9,6.1,2,5,2
		S2.9,2.9,2.9,4.1c0,0.4,0.1,0.9,0.4,1.2l0,0C4,6.2,4,6.3,4,6.6C4,6.7,4.1,7,4.4,7h1.2c0.1,0,0.2-0.1,0.3-0.1C6,6.7,6,6.6,6,6.6
		c0-0.3,0-0.4,0.7-1.3C6.9,4.9,7.1,4.5,7.1,4.1"/>
	<path class="st0" d="M5,2.3c-0.9,0-1.7,0.8-1.7,1.7c0,0.4,0.1,0.7,0.3,1l0,0c0.6,0.9,0.7,1,0.7,1.5c0,0,0,0.1,0.1,0.1h1.2l0,0l0,0
		c0-0.4,0.1-0.6,0.7-1.5l0,0c0.2-0.3,0.3-0.7,0.3-1C6.7,3.1,5.9,2.3,5,2.3 M5.6,6.7H4.4c0,0-0.1,0-0.1-0.1c0-0.4-0.1-0.6-0.7-1.4
		l0,0C3.4,4.8,3.3,4.4,3.3,4.1c0-1,0.8-1.8,1.7-1.8s1.7,0.8,1.7,1.8c0,0.4-0.1,0.7-0.4,1.1l0,0C5.8,6,5.7,6.2,5.6,6.7L5.6,6.7
		L5.6,6.7z M5,2C3.9,2,3,2.9,3,4.1c0,0.4,0.1,0.9,0.4,1.2l0,0C4,6.2,4,6.3,4,6.6C4,6.7,4.1,7,4.4,7h1.2c0.1,0,0.2-0.1,0.3-0.1
		C6,6.7,6,6.6,6,6.6c0-0.3,0-0.4,0.7-1.3C6.9,4.9,7,4.5,7,4.1C7,2.9,6.1,2,5,2 M5.6,7H4.4C4.1,7,4,6.7,4,6.6c0-0.3,0-0.4-0.7-1.3
		l0,0C3.1,4.9,2.9,4.5,2.9,4.1C2.9,2.9,3.9,2,5,2s2.1,0.9,2.1,2.1c0,0.5-0.1,0.9-0.4,1.2C6.1,6.2,6,6.3,6,6.6c0,0,0,0.2-0.1,0.3
		C5.9,6.9,5.8,7,5.6,7"/>
	<path class="st0" d="M3.7,5.1C4.3,6,4.4,6.2,4.4,6.6c0,0,0,0,0,0h1.2l0,0l0,0c0-0.4,0.1-0.6,0.7-1.5l0,0c0.2-0.3,0.3-0.7,0.3-1
		c0-0.9-0.8-1.7-1.7-1.7S3.3,3.1,3.3,4.1C3.3,4.4,3.4,4.8,3.7,5.1L3.7,5.1z M5.6,6.7H4.4c-0.1,0-0.1,0-0.1-0.1
		c0-0.4-0.1-0.6-0.7-1.4l0,0l0,0C3.4,4.8,3.2,4.4,3.2,4.1c0-1,0.8-1.8,1.8-1.8s1.8,0.8,1.8,1.8c0,0.4-0.1,0.8-0.4,1.1l0,0
		C5.8,6,5.7,6.2,5.7,6.6L5.6,6.7C5.7,6.7,5.6,6.7,5.6,6.7 M5,2c-1.1,0-2,0.9-2,2c0,0.4,0.1,0.8,0.4,1.2l0,0l0,0C4,6.2,4,6.3,4,6.6
		c0,0.1,0.1,0.4,0.4,0.4h1.2c0.1,0,0.2-0.1,0.3-0.1C6,6.7,6,6.6,6,6.6c0-0.3,0-0.4,0.7-1.3C6.9,4.9,7,4.5,7,4.1C7,2.9,6.1,2,5,2
		 M5.6,7H4.4C4.1,7,4,6.8,4,6.6c0-0.3,0-0.4-0.7-1.2l0,0C3,4.9,2.9,4.5,2.9,4.1c0-1.2,0.9-2.1,2.1-2.1s2.1,1,2.1,2.1
		c0,0.5-0.1,0.9-0.4,1.3C6.1,6.2,6,6.3,6,6.6c0,0,0,0.2-0.1,0.3C5.9,7,5.8,7,5.6,7"/>
	<path class="st0" d="M4.4,6.6L4.4,6.6l1.2,0v0c0-0.4,0.1-0.6,0.7-1.5l0,0c0.2-0.3,0.3-0.6,0.3-1c0-0.9-0.8-1.7-1.7-1.7
		S3.3,3.1,3.3,4.1c0,0.4,0.1,0.7,0.3,1l0,0C4.3,6,4.4,6.2,4.4,6.6L4.4,6.6z M5.6,6.6H4.4c0,0,0,0-0.1-0.1c0-0.4-0.1-0.6-0.7-1.5l0,0
		l0,0c-0.2-0.3-0.3-0.7-0.3-1c0-1,0.8-1.7,1.7-1.7s1.7,0.8,1.7,1.7c0,0.4-0.1,0.7-0.3,1l0,0C5.7,6,5.6,6.2,5.6,6.6L5.6,6.6L5.6,6.6
		L5.6,6.6L5.6,6.6z M5,2.3c-1,0-1.7,0.8-1.7,1.8c0,0.4,0.1,0.7,0.4,1.1l0,0l0,0c0.6,0.9,0.7,1,0.7,1.4c0,0.1,0,0.1,0.1,0.1h1.2
		l0.1,0l0-0.1c0-0.4,0.1-0.6,0.7-1.5l0,0c0.2-0.3,0.4-0.7,0.4-1.1C6.7,3.1,6,2.3,5,2.3 M5.6,6.7H4.4c-0.1,0-0.1,0-0.1-0.1
		c0-0.4-0.1-0.6-0.7-1.4l0,0l0,0C3.3,4.8,3.2,4.4,3.2,4.1c0-1,0.8-1.8,1.8-1.8s1.8,0.8,1.8,1.8c0,0.4-0.1,0.8-0.4,1.1l0,0
		C5.8,6,5.7,6.2,5.7,6.6C5.7,6.6,5.7,6.6,5.6,6.7C5.7,6.7,5.6,6.7,5.6,6.7 M5,2c-1.1,0-2,0.9-2,2c0,0.4,0.1,0.8,0.4,1.2l0,0l0,0
		c0.6,0.9,0.7,1,0.7,1.3c0,0.1,0.1,0.4,0.3,0.4h1.2c0.1,0,0.2-0.1,0.2-0.1c0.1-0.1,0.1-0.2,0.1-0.2c0-0.3,0-0.4,0.7-1.3
		C6.9,4.9,7,4.5,7,4.1C7,2.9,6.1,2,5,2 M5.6,7H4.4C4.1,7,4,6.7,4,6.6c0-0.3,0-0.4-0.7-1.3l0,0l0,0C3.1,4.9,3,4.5,3,4.1
		C3,2.9,3.9,2,5,2c1.1,0,2,0.9,2,2.1c0,0.4-0.1,0.9-0.4,1.2C6,6.2,6,6.3,6,6.6c0,0,0,0.2-0.1,0.3C5.8,6.9,5.7,7,5.6,7 M5,2
		C3.9,2,2.9,2.9,2.9,4.1c0,0.4,0.1,0.9,0.4,1.2l0,0C3.9,6.2,4,6.3,4,6.6C4,6.7,4.1,7,4.4,7h1.2c0.2,0,0.2-0.1,0.3-0.1
		C6,6.8,6,6.6,6,6.6c0-0.3,0-0.4,0.7-1.3c0.3-0.4,0.4-0.8,0.4-1.3C7.1,2.9,6.1,2,5,2 M5.6,7H4.4C4.1,7,3.9,6.8,3.9,6.6
		c0-0.3,0-0.4-0.6-1.2l0,0C3,4.9,2.9,4.5,2.9,4.1c0-1.2,1-2.1,2.1-2.1c1.2,0,2.1,1,2.1,2.1C7.1,4.5,7,5,6.7,5.3
		c-0.6,0.9-0.6,1-0.6,1.2c0,0,0,0.2-0.1,0.3C5.9,7,5.8,7,5.6,7"/>
	<path class="st0" d="M5.2,9H4.8L4.5,8.8l1-0.2L5.2,9z M4.4,7.5h1.2c0.1,0,0.1,0,0.1,0l0,0.1v0l0,0v0L4.3,7.9V7.7
		C4.3,7.6,4.3,7.5,4.4,7.5 M4.3,8.2L5.7,8v0.3L4.3,8.5V8.2z M5.9,7.4c0-0.1-0.1-0.1-0.2-0.1H4.4c-0.3,0-0.4,0.3-0.4,0.4v0v1l0,0l0,0
		l0,0l0,0l0,0.1l0,0l0,0l0.6,0.4l0.1,0h0.5l0.1,0l0.6-0.7l0,0l0,0l0,0l0,0l0,0l0,0l0,0l0,0l0,0V7.7C5.9,7.6,5.9,7.5,5.9,7.4"/>
	<path class="st0" d="M4.4,7.6c0,0-0.1,0-0.1,0.1v0.2l1.4-0.2l0,0l0,0l0-0.1c0,0,0,0-0.1,0L4.4,7.6z M4.3,8V7.7
		c0-0.1,0.1-0.2,0.1-0.2h1.2c0.1,0,0.1,0,0.1,0c0,0,0,0.1,0,0.1l0,0L4.3,8z M4.3,8.2v0.2l1.4-0.2V8L4.3,8.2z M4.3,8.5V8.2L5.7,8v0.3
		L4.3,8.5z M4.8,8.9h0.4l0.3-0.3L4.6,8.8L4.8,8.9z M5.2,9H4.8L4.5,8.8l1.1-0.2L5.2,9z M4.4,7.3c-0.2,0-0.3,0.2-0.3,0.4v1l0,0v0l0,0
		l0,0l0,0l0,0.1l0,0l0,0l0.6,0.4l0.1,0h0.5l0.1,0l0.6-0.7l0,0l0,0l0,0l0,0l0,0l0,0l0,0l0-0.7c0,0,0-0.2-0.1-0.3
		c0-0.1-0.1-0.1-0.2-0.1L4.4,7.3z M5.2,9.3H4.8l-0.1,0L4.1,8.8l0,0l0,0l0-0.1l0,0l0,0l0,0v0l0,0v-1c0-0.2,0.1-0.4,0.4-0.4h1.2
		c0.1,0,0.2,0.1,0.3,0.1C6,7.5,6,7.6,6,7.7l0,0.7l0,0l0,0l0,0l0,0l0,0l0,0l0,0l0,0L5.2,9.3C5.3,9.3,5.3,9.3,5.2,9.3"/>
	<path class="st0" d="M4.4,7.6c0,0-0.1,0-0.1,0.1v0.2l1.3-0.2l0-0.1l0,0L4.4,7.6z M4.3,8V7.7c0-0.1,0.1-0.2,0.2-0.2h1.2
		c0,0,0.1,0,0.1,0c0,0,0,0.1,0,0.1l0,0l0,0l0,0L4.3,8z M4.3,8.3v0.2l1.3-0.2V8L4.3,8.3z M4.3,8.6V8.2l1.5-0.3v0.4L4.3,8.6z M4.8,8.9
		h0.4l0.2-0.3L4.6,8.8L4.8,8.9z M5.2,9H4.8L4.4,8.7l1.2-0.2L5.2,9z M4.1,8.7L4.1,8.7L4.1,8.7L4.1,8.7L4.1,8.7L4.1,8.7L4.1,8.7
		L4.1,8.7l0.6,0.5l0,0h0.5l0.1,0l0.6-0.7l0,0l0,0l0,0l0,0l0,0l0,0l0,0l0,0V7.7c0,0,0-0.2-0.1-0.3c0,0-0.1-0.1-0.2-0.1H4.4
		c-0.2,0-0.3,0.2-0.3,0.4L4.1,8.7L4.1,8.7z M5.2,9.3H4.8l-0.1,0L4.1,8.8l0,0l0,0l0-0.1l0,0l0,0l0,0l0,0l0,0v-1
		c0-0.2,0.1-0.5,0.4-0.5h1.2c0.1,0,0.2,0.1,0.3,0.1C6,7.5,6,7.6,6,7.7l0,0.7l0,0l0,0l0,0l0,0l0,0l0,0l0,0l0,0L5.4,9.2
		C5.3,9.3,5.3,9.3,5.2,9.3"/>
	<path class="st0" d="M4.4,7.6C4.4,7.6,4.3,7.6,4.4,7.6L4.3,7.9l1.3-0.2l0,0l0,0L4.4,7.6z M4.3,7.9V7.7c0-0.1,0.1-0.1,0.1-0.1h1.2
		l0.1,0l0,0.1v0L4.3,7.9z M4.4,7.5c-0.1,0-0.1,0.1-0.1,0.2V8l1.5-0.3v0l0,0h0l0,0c0,0,0-0.1,0-0.1c0,0,0,0-0.1,0L4.4,7.5z M4.2,8
		V7.7c0-0.1,0.1-0.2,0.2-0.2h1.2c0.1,0,0.1,0,0.1,0c0,0,0,0.1,0,0.1v0l0,0v0.1L4.2,8z M4.3,8.3v0.2l1.3-0.2V8.1L4.3,8.3z M4.3,8.5
		V8.2L5.7,8v0.2L4.3,8.5z M4.3,8.2v0.3l1.5-0.3V8L4.3,8.2z M4.2,8.6V8.2l1.5-0.3v0.4L4.2,8.6z M4.8,8.9h0.3l0.2-0.2L4.7,8.8L4.8,8.9
		z M5.2,8.9H4.8L4.6,8.8l0.9-0.2L5.2,8.9z M4.8,9h0.4l0.3-0.4L4.5,8.7L4.8,9z M5.2,9H4.8L4.4,8.7l1.3-0.2L5.2,9z M4.1,8.7L4.1,8.7
		L4.1,8.7L4.1,8.7L4.1,8.7L4.1,8.7L4.1,8.7l0.6,0.5l0,0h0.5l0,0l0.6-0.7l0,0l0,0l0,0l0,0l0,0l0,0l0,0l0,0V7.7c0,0,0-0.2-0.1-0.3
		c0,0-0.1-0.1-0.2-0.1H4.4c-0.2,0-0.3,0.2-0.3,0.4L4.1,8.7z M5.2,9.2H4.8l-0.1,0L4.1,8.8l0,0l0,0l0-0.1l0,0v0h0v-1
		c0-0.2,0.1-0.4,0.3-0.4h1.2c0.1,0,0.2,0.1,0.2,0.1c0.1,0.1,0.1,0.3,0.1,0.3v0.7l0,0l0,0l0,0l0,0l0,0l0,0l0,0l0,0l0,0l0,0L5.2,9.2
		L5.2,9.2z M4.4,7.2c-0.2,0-0.2,0.1-0.3,0.2C4.1,7.5,4,7.6,4,7.7v1v0l0,0l0,0l0,0l0,0.1l0,0l0,0l0.6,0.4l0.1,0h0.5c0,0,0.1,0,0.1,0
		l0.6-0.7l0,0l0,0l0,0l0,0l0,0l0,0l0,0l0,0l0-0.7c0,0,0-0.2-0.1-0.3c0-0.1-0.1-0.1-0.3-0.1L4.4,7.2z M5.2,9.3H4.8c0,0-0.1,0-0.1,0
		L4.1,8.8l0,0l0,0l0-0.1l0,0l0,0l0,0l0,0l0,0v-1c0-0.1,0-0.2,0.1-0.3c0.1-0.1,0.2-0.2,0.3-0.2h1.2c0.2,0,0.2,0.1,0.3,0.1
		C6,7.5,6,7.6,6,7.7l0,0.7l0,0l0,0l0,0l0,0l0,0l0,0l0,0l0,0L5.4,9.2C5.3,9.3,5.3,9.3,5.2,9.3"/>
	<path class="st0" d="M2.5,4.1c0-0.1-0.1-0.1-0.1-0.1H1.7C1.6,3.9,1.6,4,1.6,4.1c0,0.1,0.1,0.1,0.1,0.1h0.7C2.5,4.2,2.5,4.1,2.5,4.1
		"/>
	<path class="st0" d="M1.7,4C1.6,4,1.6,4,1.7,4c-0.1,0.1,0,0.1,0,0.1h0.7c0,0,0.1,0,0.1-0.1c0,0,0-0.1-0.1-0.1H1.7z M2.4,4.2H1.7
		c-0.1,0-0.2-0.1-0.2-0.2c0-0.1,0.1-0.2,0.2-0.2h0.7c0.1,0,0.2,0.1,0.2,0.2C2.6,4.2,2.5,4.2,2.4,4.2"/>
	<path class="st0" d="M1.7,4C1.6,4,1.6,4,1.7,4c-0.1,0.1,0,0.2,0,0.2h0.7c0,0,0.1,0,0.1-0.1c0,0,0-0.1-0.1-0.1L1.7,4z M2.4,4.2H1.7
		c-0.1,0-0.2-0.1-0.2-0.2c0-0.1,0.1-0.2,0.2-0.2h0.7c0.1,0,0.2,0.1,0.2,0.2C2.6,4.1,2.5,4.2,2.4,4.2"/>
	<path class="st0" d="M1.7,4L1.7,4L1.7,4l0.7,0l0,0l0,0H1.7z M2.4,4.3H1.7c-0.1,0-0.2-0.1-0.2-0.2c0-0.1,0.1-0.2,0.2-0.2h0.7
		c0.1,0,0.2,0.1,0.2,0.2C2.6,4.2,2.5,4.3,2.4,4.3"/>
	<path class="st0" d="M8.3,3.9H7.6C7.5,3.9,7.5,4,7.5,4.1c0,0.1,0.1,0.1,0.1,0.1h0.7c0.1,0,0.1-0.1,0.1-0.1C8.4,4,8.4,3.9,8.3,3.9"
		/>
	<path class="st0" d="M7.6,4C7.6,4,7.5,4,7.6,4c-0.1,0.1,0,0.1,0,0.1h0.7c0,0,0.1,0,0.1-0.1c0,0,0-0.1-0.1-0.1H7.6z M8.3,4.2H7.6
		c-0.1,0-0.2-0.1-0.2-0.2c0-0.1,0.1-0.2,0.2-0.2h0.7c0.1,0,0.2,0.1,0.2,0.2C8.5,4.2,8.4,4.2,8.3,4.2"/>
	<path class="st0" d="M7.6,4C7.6,4,7.5,4,7.6,4c-0.1,0.1,0,0.2,0,0.2h0.7c0,0,0.1,0,0.1-0.1c0,0,0-0.1-0.1-0.1L7.6,4z M8.3,4.2H7.6
		c-0.1,0-0.2-0.1-0.2-0.2c0-0.1,0.1-0.2,0.2-0.2h0.7c0.1,0,0.2,0.1,0.2,0.2C8.5,4.1,8.4,4.2,8.3,4.2"/>
	<path class="st0" d="M7.6,4L7.6,4L7.6,4l0.7,0l0,0l0,0H7.6z M8.3,4.3H7.6c-0.1,0-0.2-0.1-0.2-0.2c0-0.1,0.1-0.2,0.2-0.2h0.7
		c0.1,0,0.2,0.1,0.2,0.2C8.5,4.2,8.4,4.3,8.3,4.3"/>
	<path class="st0" d="M5,1.5c0.1,0,0.1-0.1,0.1-0.1V0.9c0-0.1-0.1-0.1-0.1-0.1c-0.1,0-0.1,0.1-0.1,0.1v0.5C4.9,1.5,4.9,1.5,5,1.5"/>
	<path class="st0" d="M5,0.8C5,0.8,4.9,0.9,5,0.8L4.9,1.4c0,0,0,0.1,0.1,0.1c0,0,0.1,0,0.1-0.1L5,0.8C5.1,0.9,5,0.8,5,0.8 M5,1.6
		c-0.1,0-0.2-0.1-0.2-0.2V0.9c0-0.1,0.1-0.2,0.2-0.2c0.1,0,0.2,0.1,0.2,0.2v0.5C5.2,1.5,5.1,1.6,5,1.6"/>
	<path class="st0" d="M5,0.8C5,0.8,4.9,0.9,5,0.8L4.9,1.4c0,0,0,0.1,0.1,0.1c0,0,0.1,0,0.1-0.1L5,0.8C5.1,0.9,5,0.8,5,0.8 M5,1.5
		c-0.1,0-0.2-0.1-0.2-0.2V0.9c0-0.1,0.1-0.2,0.2-0.2c0.1,0,0.2,0.1,0.2,0.2v0.5C5.2,1.5,5.1,1.5,5,1.5"/>
	<path class="st0" d="M5,0.9L5,0.9l0,0.5l0,0l0,0L5,0.9L5,0.9z M5,1.6c-0.1,0-0.2-0.1-0.2-0.2V0.9c0-0.1,0.1-0.2,0.2-0.2
		c0.1,0,0.2,0.1,0.2,0.2v0.5C5.2,1.5,5.1,1.6,5,1.6"/>
	<path class="st0" d="M3.7,1.8c0,0,0.1,0.1,0.1,0.1l0.1,0c0.1,0,0.1-0.1,0-0.2L3.7,1.4c0-0.1-0.1-0.1-0.2,0c-0.1,0-0.1,0.1,0,0.2
		L3.7,1.8z"/>
	<path class="st0" d="M3.7,1.8L3.7,1.8l0.1-0.1L3.6,1.4l-0.1,0l0,0.1L3.7,1.8z M3.8,1.9c-0.1,0-0.1,0-0.2-0.1L3.4,1.5
		c0-0.1,0-0.2,0.1-0.2c0.1,0,0.2,0,0.2,0.1l0.2,0.3C4,1.7,3.9,1.8,3.8,1.9L3.8,1.9z"/>
	<path class="st0" d="M3.7,1.8c0,0,0.1,0.1,0.1,0l0,0l0-0.1L3.6,1.4c0,0-0.1-0.1-0.1,0c0,0-0.1,0.1,0,0.1L3.7,1.8z M3.8,1.9
		c-0.1,0-0.1,0-0.1-0.1l0,0L3.4,1.5c0-0.1,0-0.2,0.1-0.2c0.1,0,0.2,0,0.2,0.1l0.2,0.3c0,0,0,0.1,0,0.1C3.9,1.8,3.9,1.8,3.8,1.9
		L3.8,1.9z"/>
	<path class="st0" d="M3.7,1.7L3.7,1.7L3.7,1.7L3.7,1.7L3.6,1.4l0,0l0,0L3.7,1.7z M3.8,1.9c-0.1,0-0.1,0-0.2-0.1L3.4,1.5
		c-0.1-0.1,0-0.2,0.1-0.3c0.1-0.1,0.2,0,0.3,0.1l0.2,0.3c0,0,0,0.1,0,0.2c0,0.1-0.1,0.1-0.1,0.1C3.8,1.9,3.8,1.9,3.8,1.9"/>
	<path class="st0" d="M6.2,1.8L6.2,1.8c0.1,0,0.1,0,0.2,0l0.2-0.3c0-0.1,0-0.1,0-0.2c-0.1,0-0.1,0-0.2,0L6.1,1.7
		C6.1,1.7,6.1,1.8,6.2,1.8"/>
	<path class="st0" d="M6.2,1.8L6.2,1.8l0.3-0.3l0,0l0,0l-0.1,0L6.2,1.8L6.2,1.8L6.2,1.8z M6.2,1.9L6.2,1.9c-0.1,0-0.2-0.1-0.2-0.1
		c0,0,0-0.1,0-0.1l0.2-0.3c0-0.1,0.2-0.1,0.2-0.1c0,0,0.1,0.1,0.1,0.1c0,0,0,0.1,0,0.1L6.4,1.8C6.4,1.9,6.3,1.9,6.2,1.9"/>
	<path class="st0" d="M6.4,1.3L6.4,1.3L6.2,1.7l0,0.1l0,0c0,0,0.1,0,0.1,0l0.2-0.3L6.4,1.3L6.4,1.3L6.4,1.3z M6.2,1.9L6.2,1.9
		c-0.1,0-0.1-0.1-0.2-0.1c0,0,0-0.1,0-0.1l0.2-0.3c0-0.1,0.1-0.1,0.2-0.1c0,0,0.1,0.1,0.1,0.1c0,0,0,0.1,0,0.1L6.4,1.8
		C6.4,1.9,6.3,1.9,6.2,1.9"/>
	<path class="st0" d="M6.4,1.4L6.4,1.4L6.2,1.7l0,0l0,0l0,0L6.4,1.4L6.4,1.4L6.4,1.4L6.4,1.4z M6.2,1.9c0,0-0.1,0-0.1,0
		c0,0-0.1-0.1-0.1-0.1c0-0.1,0-0.1,0-0.2l0.2-0.3c0,0,0.1-0.1,0.1-0.1c0.1,0,0.1,0,0.2,0c0,0,0.1,0.1,0.1,0.1c0,0.1,0,0.1,0,0.2
		L6.4,1.8C6.4,1.9,6.3,1.9,6.2,1.9"/>
	<path class="st0" d="M2.2,2.6l0.5,0.3l0.1,0c0,0,0.1,0,0.1-0.1c0-0.1,0-0.1,0-0.2L2.3,2.4c-0.1,0-0.1,0-0.2,0
		C2.1,2.5,2.1,2.5,2.2,2.6"/>
	<path class="st0" d="M2.2,2.5l0.5,0.3l0.1,0l0-0.1L2.3,2.4L2.2,2.5L2.2,2.5L2.2,2.5z M2.8,2.9L2.8,2.9L2.2,2.6c0,0-0.1-0.1-0.1-0.1
		c0,0,0-0.1,0-0.1c0-0.1,0.2-0.1,0.2-0.1l0.5,0.3c0.1,0,0.1,0.2,0.1,0.2C2.9,2.9,2.8,2.9,2.8,2.9"/>
	<path class="st0" d="M2.2,2.5l0.5,0.3c0,0,0.1,0,0.1,0c0,0,0-0.1,0-0.1L2.3,2.4c0,0-0.1,0-0.1,0C2.2,2.5,2.2,2.5,2.2,2.5 M2.8,2.9
		L2.8,2.9L2.2,2.6c-0.1,0-0.1-0.1-0.1-0.2c0-0.1,0.1-0.1,0.2-0.1l0.5,0.3c0.1,0,0.1,0.1,0.1,0.2C2.9,2.9,2.8,2.9,2.8,2.9"/>
	<path class="st0" d="M2.2,2.5l0.5,0.3l0,0l0,0l0,0L2.2,2.5L2.2,2.5L2.2,2.5z M2.8,3c0,0-0.1,0-0.1,0L2.1,2.6c0,0-0.1-0.1-0.1-0.1
		c0-0.1,0-0.1,0-0.2c0.1-0.1,0.2-0.1,0.3-0.1l0.5,0.3c0,0,0.1,0.1,0.1,0.1c0,0.1,0,0.1,0,0.2C2.9,2.9,2.8,3,2.8,3"/>
	<path class="st0" d="M7.8,5.5L7.3,5.2c-0.1,0-0.1,0-0.2,0c0,0.1,0,0.1,0,0.2l0.5,0.3l0.1,0c0,0,0.1,0,0.1-0.1
		C7.9,5.6,7.9,5.5,7.8,5.5"/>
	<path class="st0" d="M7.3,5.3L7.3,5.3L7.3,5.3L7.3,5.3l0,0.1l0.5,0.3l0.1,0l0-0.1L7.3,5.3L7.3,5.3z M7.8,5.8L7.8,5.8L7.2,5.5
		c0,0-0.1-0.1-0.1-0.1c0,0,0-0.1,0-0.1c0,0,0.1-0.1,0.1-0.1c0,0,0.1,0,0.1,0l0.5,0.3C8,5.5,8,5.6,7.9,5.7C7.9,5.8,7.8,5.8,7.8,5.8"
		/>
	<path class="st0" d="M7.3,5.2L7.3,5.2L7.2,5.3l0,0l0.5,0.3c0,0,0.1,0,0.1,0c0,0,0-0.1,0-0.1L7.3,5.2L7.3,5.2z M7.8,5.8L7.8,5.8
		L7.2,5.5c0,0-0.1-0.1-0.1-0.1c0,0,0-0.1,0-0.1c0-0.1,0.1-0.1,0.2-0.1l0.5,0.3c0.1,0,0.1,0.1,0.1,0.2C7.9,5.7,7.8,5.8,7.8,5.8"/>
	<path class="st0" d="M7.3,5.3L7.3,5.3L7.3,5.3L7.3,5.3l0.5,0.3l0,0l0,0l0,0L7.3,5.3L7.3,5.3z M7.8,5.8c0,0-0.1,0-0.1,0L7.2,5.5
		c0,0-0.1-0.1-0.1-0.1c0-0.1,0-0.1,0-0.2c0,0,0.1-0.1,0.1-0.1c0.1,0,0.1,0,0.2,0l0.5,0.3C8,5.5,8,5.6,8,5.7C7.9,5.8,7.9,5.8,7.8,5.8
		"/>
	<path class="st0" d="M2.7,5.2L2.2,5.5c-0.1,0-0.1,0.1,0,0.2c0,0,0.1,0.1,0.1,0.1l0.1,0l0.5-0.3c0.1,0,0.1-0.1,0-0.2
		C2.8,5.2,2.7,5.2,2.7,5.2"/>
	<path class="st0" d="M2.7,5.3L2.7,5.3L2.7,5.3L2.2,5.6l0,0.1l0.1,0l0.5-0.3L2.7,5.3L2.7,5.3L2.7,5.3L2.7,5.3z M2.2,5.8
		c-0.1,0-0.1,0-0.2-0.1c0-0.1,0-0.2,0.1-0.2l0.5-0.3c0,0,0.1,0,0.1,0c0,0,0.1,0,0.1,0.1c0,0,0,0.1,0,0.1c0,0,0,0.1-0.1,0.1L2.2,5.8
		L2.2,5.8z"/>
	<path class="st0" d="M2.7,5.2L2.7,5.2L2.2,5.5c0,0-0.1,0.1,0,0.1c0,0,0.1,0.1,0.1,0l0.5-0.3l0,0L2.7,5.2L2.7,5.2L2.7,5.2z M2.2,5.8
		c-0.1,0-0.1,0-0.1-0.1c0-0.1,0-0.2,0.1-0.2l0.5-0.3c0,0,0.1,0,0.1,0c0,0,0.1,0,0.1,0.1c0,0,0,0.1,0,0.1c0,0,0,0.1-0.1,0.1L2.2,5.8
		L2.2,5.8z"/>
	<path class="st0" d="M2.7,5.3L2.7,5.3L2.2,5.6l0,0l0,0L2.7,5.3L2.7,5.3L2.7,5.3L2.7,5.3L2.7,5.3z M2.2,5.8c-0.1,0-0.1,0-0.2-0.1
		C2,5.6,2,5.5,2.1,5.4l0.5-0.3c0,0,0.1,0,0.2,0c0.1,0,0.1,0.1,0.1,0.1c0,0.1,0,0.1,0,0.2c0,0.1-0.1,0.1-0.1,0.1L2.3,5.8
		C2.3,5.8,2.3,5.8,2.2,5.8"/>
	<path class="st0" d="M7.2,2.9L7.2,2.9l0.6-0.3c0.1,0,0.1-0.1,0-0.2c0-0.1-0.1-0.1-0.2,0L7.2,2.7c-0.1,0-0.1,0.1,0,0.2
		C7.2,2.9,7.2,2.9,7.2,2.9"/>
	<path class="st0" d="M7.7,2.4L7.7,2.4L7.2,2.7l0,0.1l0.1,0l0.5-0.3L7.7,2.4L7.7,2.4L7.7,2.4z M7.2,2.9c-0.1,0-0.1,0-0.2-0.1
		c0-0.1,0-0.2,0.1-0.2l0.5-0.3c0,0,0.1,0,0.1,0c0,0,0.1,0,0.1,0.1c0,0.1,0,0.2-0.1,0.2L7.2,2.9L7.2,2.9z"/>
	<path class="st0" d="M7.7,2.4L7.7,2.4L7.2,2.7l0,0l0,0.1c0,0,0.1,0.1,0.1,0l0.5-0.3C7.8,2.5,7.8,2.5,7.7,2.4L7.7,2.4L7.7,2.4z
		 M7.2,2.9c-0.1,0-0.1,0-0.1-0.1c0,0,0-0.1,0-0.1c0,0,0-0.1,0.1-0.1l0.5-0.3c0,0,0.1,0,0.1,0c0,0,0.1,0,0.1,0.1c0,0.1,0,0.2-0.1,0.2
		L7.2,2.9L7.2,2.9z"/>
	<path class="st0" d="M7.7,2.4L7.7,2.4L7.2,2.7l0,0l0,0l0,0L7.7,2.4L7.7,2.4L7.7,2.4L7.7,2.4L7.7,2.4z M7.2,3C7.2,3,7.1,2.9,7,2.9
		c0-0.1,0-0.1,0-0.2c0-0.1,0.1-0.1,0.1-0.1l0.5-0.3c0,0,0.1,0,0.2,0c0.1,0,0.1,0.1,0.1,0.1c0,0.1,0,0.1,0,0.2c0,0.1-0.1,0.1-0.1,0.1
		L7.3,2.9C7.3,3,7.3,3,7.2,3"/>
</g>
</svg>
