<?xml version="1.0" encoding="utf-8"?>
<!-- Generator: Adobe Illustrator 25.2.0, SVG Export Plug-In . SVG Version: 6.00 Build 0)  -->
<svg version="1.1"
	 id="Layer_1" xmlns:cc="http://creativecommons.org/ns#" xmlns:dc="http://purl.org/dc/elements/1.1/" xmlns:rdf="http://www.w3.org/1999/02/22-rdf-syntax-ns#" xmlns:svg="http://www.w3.org/2000/svg"
	 xmlns="http://www.w3.org/2000/svg" xmlns:xlink="http://www.w3.org/1999/xlink" x="0px" y="0px" viewBox="0 0 10 10"
	 style="enable-background:new 0 0 10 10;" xml:space="preserve">
<style type="text/css">
	.st0{fill:#A35DFF;}
</style>
<g>
	<path class="st0" d="M6.5,5.8c0.7,2.8,1,2.6-1.5,1.1C2.5,8.4,2.9,8.6,3.5,5.8C1.3,3.9,1.2,4.3,4.1,4.1c1.1-2.7,0.7-2.7,1.8,0
		C8.8,4.3,8.7,3.9,6.5,5.8 M8.5,4.2C8.3,3.8,7.9,3.8,7.6,3.8c-0.5,0-0.9-0.1-1.4-0.1C6,3.3,5.8,2.8,5.7,2.4C5.5,2.1,5.4,1.7,5,1.7
		c-0.4,0-0.5,0.4-0.7,0.7C4.2,2.8,4,3.3,3.8,3.7c-0.5,0-0.9,0.1-1.4,0.1c-0.3,0-0.8,0-0.9,0.4C1.4,4.5,1.8,4.8,2,5
		c0.4,0.3,0.7,0.6,1.1,0.9C3,6.4,2.9,6.8,2.8,7.3C2.7,7.6,2.6,8,2.9,8.2c0.3,0.2,0.7,0,1-0.2C4.2,7.8,4.6,7.5,5,7.3
		C5.4,7.5,5.8,7.8,6.2,8c0.3,0.2,0.7,0.4,1,0.2c0.3-0.2,0.2-0.7,0.1-1C7.1,6.8,7,6.4,6.9,5.9C7.2,5.6,7.6,5.3,8,5
		C8.2,4.8,8.6,4.5,8.5,4.2"/>
	<path class="st0" d="M6.5,5.8L6.5,5.8c0.1,0.6,0.2,1,0.3,1.4c0.1,0.3,0.1,0.6,0.1,0.7c0,0,0,0.1,0,0.1l0,0c0,0-0.1,0-0.2-0.1
		C6.4,7.7,5.9,7.3,5,6.8l0,0l0,0C4.4,7.1,4,7.4,3.7,7.6C3.5,7.7,3.4,7.8,3.3,7.8c-0.1,0-0.2,0.1-0.2,0.1l0,0c0,0,0,0,0-0.1
		c0-0.1,0.1-0.3,0.1-0.7c0.1-0.3,0.2-0.8,0.4-1.4l0,0l0,0C3,5.3,2.6,5,2.4,4.7C2.2,4.6,2.1,4.5,2,4.4C2,4.4,1.9,4.3,2,4.3l0,0
		c0,0,0.1,0,0.2-0.1c0.3,0,1-0.1,1.9-0.1l0,0l0,0c0.3-0.7,0.5-1.2,0.6-1.5c0.1-0.2,0.1-0.3,0.2-0.4c0,0,0-0.1,0.1-0.1l0,0l0,0
		c0.1,0.1,0.2,0.3,0.3,0.6C5.4,3,5.6,3.5,5.9,4.1l0,0l0,0c0.8,0.1,1.3,0.1,1.7,0.1c0.2,0,0.3,0,0.4,0.1c0,0,0.1,0,0.1,0l0,0
		c0,0,0,0.1-0.1,0.1C7.7,4.7,7.2,5.1,6.5,5.8L6.5,5.8L6.5,5.8L6.5,5.8L6.5,5.8c0.6-0.4,1-0.7,1.3-1C7.9,4.7,8,4.6,8,4.5
		c0.1-0.1,0.1-0.1,0.1-0.2c0,0,0-0.1-0.1-0.1C8,4.2,8,4.1,7.9,4.1c-0.3,0-1-0.1-1.9-0.1l0,0.1L6,4C5.7,3.4,5.5,2.9,5.4,2.5
		C5.3,2.4,5.2,2.2,5.2,2.1c0,0-0.1-0.1-0.1-0.1C5.1,2,5,2,5,2c0,0-0.1,0-0.1,0C4.8,2.1,4.7,2.3,4.6,2.7C4.5,3,4.3,3.4,4,4l0.1,0
		l0-0.1C3.3,4.1,2.8,4.1,2.4,4.1c-0.2,0-0.3,0-0.4,0.1c0,0-0.1,0-0.1,0.1c0,0-0.1,0.1-0.1,0.1c0,0.1,0.1,0.1,0.1,0.2
		c0.2,0.2,0.7,0.6,1.5,1.3l0,0l-0.1,0c-0.1,0.6-0.3,1-0.4,1.4C3,7.5,3,7.7,3,7.8C3,7.9,3,7.9,3,8C3,8,3.1,8,3.1,8
		c0.1,0,0.1,0,0.2-0.1c0.3-0.2,0.8-0.5,1.7-1l0,0l0,0c0.6,0.3,1,0.6,1.3,0.8c0.2,0.1,0.3,0.2,0.4,0.2C6.7,8,6.8,8,6.9,8
		C6.9,8,7,8,7,7.9c0,0,0-0.1,0-0.1C7,7.7,7,7.4,6.9,7.1C6.8,6.8,6.7,6.3,6.5,5.8L6.5,5.8L6.5,5.8L6.5,5.8z M8.5,4.2L8.5,4.2
		c0-0.2-0.2-0.3-0.4-0.4C7.9,3.7,7.7,3.7,7.6,3.7l0,0.1l0-0.1c-0.5,0-0.9-0.1-1.4-0.1l0,0.1l0.1,0C6.1,3.2,5.9,2.8,5.7,2.4l-0.1,0
		l0.1,0C5.7,2.2,5.6,2.1,5.5,1.9C5.4,1.7,5.2,1.6,5,1.6c-0.2,0-0.4,0.1-0.5,0.3C4.4,2.1,4.3,2.2,4.3,2.4C4.1,2.8,4,3.2,3.8,3.7
		l0.1,0l0-0.1c-0.5,0-0.9,0.1-1.4,0.1l0,0.1l0-0.1c-0.2,0-0.4,0-0.5,0.1C1.7,3.8,1.6,3.9,1.5,4.2c0,0.1,0,0.1,0,0.2
		c0,0.3,0.3,0.6,0.5,0.8l0,0l0,0C2.4,5.4,2.7,5.7,3.1,6l0,0l-0.1,0C2.9,6.3,2.8,6.8,2.7,7.2v0l0,0c0,0.2-0.1,0.4-0.1,0.6
		c0,0.2,0.1,0.4,0.2,0.5l0,0l0,0C2.9,8.4,3,8.4,3.1,8.4c0.3,0,0.5-0.2,0.7-0.3l0,0C4.3,7.8,4.6,7.6,5,7.3l0,0l0,0
		c0.4,0.2,0.8,0.5,1.2,0.7h0c0.2,0.1,0.5,0.3,0.7,0.3c0.1,0,0.2,0,0.3-0.1l0,0l0,0C7.3,8.2,7.4,8,7.4,7.8c0-0.2-0.1-0.4-0.1-0.6v0v0
		C7.2,6.8,7.1,6.3,6.9,5.9l-0.1,0l0,0C7.3,5.7,7.6,5.4,8,5.1l0,0l0,0c0.2-0.2,0.5-0.4,0.5-0.8C8.5,4.3,8.5,4.2,8.5,4.2L8.5,4.2
		L8.5,4.2c0,0.1,0,0.1,0,0.1c0,0.3-0.3,0.5-0.5,0.7l0,0l0,0C7.6,5.3,7.2,5.6,6.9,5.9l0,0l0,0c0.1,0.4,0.2,0.9,0.3,1.3l0.1,0l-0.1,0
		c0,0.2,0.1,0.4,0.1,0.5c0,0.2,0,0.3-0.2,0.4l0,0l0,0C7,8.2,7,8.3,6.9,8.3C6.6,8.3,6.4,8.1,6.2,8v0C5.8,7.7,5.4,7.5,5,7.2l0,0l0,0
		C4.6,7.5,4.2,7.7,3.8,8h0C3.6,8.1,3.3,8.3,3.1,8.3C3,8.3,3,8.3,2.9,8.2l0,0h0C2.8,8.1,2.7,8,2.7,7.8c0-0.2,0.1-0.4,0.1-0.5l0,0
		c0.1-0.5,0.2-0.9,0.4-1.3l0,0l0,0C2.8,5.6,2.4,5.3,2.1,5l0,0l0,0C1.9,4.8,1.6,4.6,1.6,4.3c0,0,0-0.1,0-0.1C1.6,4,1.8,4,1.9,3.9
		c0.2,0,0.4-0.1,0.5-0.1h0l0,0c0.5,0,0.9-0.1,1.4-0.1l0,0l0,0c0.2-0.4,0.3-0.9,0.5-1.3C4.5,2.3,4.5,2.1,4.6,2C4.7,1.8,4.8,1.7,5,1.7
		c0.2,0,0.3,0.1,0.4,0.2c0.1,0.1,0.2,0.3,0.2,0.5l0,0v0c0.2,0.4,0.3,0.8,0.5,1.3l0,0l0,0c0.5,0,0.9,0.1,1.4,0.1l0,0h0
		c0.2,0,0.4,0,0.5,0.1C8.2,4,8.4,4,8.5,4.2L8.5,4.2z"/>
	<path class="st0" d="M6.5,5.8c0.7,2.8,1,2.6-1.5,1.1C2.5,8.4,2.9,8.6,3.5,5.8C1.3,3.9,1.2,4.3,4.1,4.1c1.1-2.7,0.7-2.7,1.8,0
		C8.8,4.3,8.7,3.9,6.5,5.8 M8.5,4.2C8.3,3.8,7.9,3.8,7.6,3.8c-0.5,0-0.9-0.1-1.4-0.1C6,3.3,5.8,2.8,5.7,2.4C5.5,2.1,5.4,1.7,5,1.7
		c-0.4,0-0.5,0.4-0.7,0.7C4.2,2.8,4,3.3,3.8,3.7c-0.5,0-0.9,0.1-1.4,0.1c-0.3,0-0.8,0-0.9,0.4C1.4,4.5,1.8,4.8,2,5
		c0.4,0.3,0.7,0.6,1.1,0.9C3,6.4,2.9,6.8,2.8,7.3C2.7,7.6,2.6,8,2.9,8.2c0.3,0.2,0.7,0,1-0.2C4.2,7.8,4.6,7.5,5,7.3
		C5.4,7.5,5.8,7.8,6.2,8c0.3,0.2,0.7,0.4,1,0.2c0.3-0.2,0.2-0.7,0.1-1C7.1,6.8,7,6.4,6.9,5.9C7.2,5.6,7.6,5.3,8,5
		C8.2,4.8,8.6,4.5,8.5,4.2"/>
	<path class="st0" d="M6.5,5.8L6.5,5.8c0.1,0.6,0.2,1,0.3,1.4c0.1,0.3,0.1,0.6,0.1,0.7c0,0,0,0.1,0,0.1l0,0c0,0-0.1,0-0.2-0.1
		C6.4,7.7,5.9,7.3,5,6.8l0,0l0,0C4.4,7.1,4,7.4,3.7,7.6C3.5,7.7,3.4,7.8,3.3,7.8c-0.1,0-0.2,0.1-0.2,0.1l0,0c0,0,0,0,0-0.1
		c0-0.1,0.1-0.3,0.1-0.7c0.1-0.3,0.2-0.8,0.4-1.4l0,0l0,0C3,5.3,2.6,5,2.4,4.7C2.2,4.6,2.1,4.5,2,4.4C2,4.4,1.9,4.3,2,4.3l0,0
		c0,0,0.1,0,0.2-0.1c0.3,0,1-0.1,1.9-0.1l0,0l0,0c0.3-0.7,0.5-1.2,0.6-1.5c0.1-0.2,0.1-0.3,0.2-0.4c0,0,0-0.1,0.1-0.1l0,0l0,0
		c0.1,0.1,0.2,0.3,0.3,0.6C5.4,3,5.6,3.5,5.9,4.1l0,0l0,0c0.8,0.1,1.3,0.1,1.7,0.1c0.2,0,0.3,0,0.4,0.1c0,0,0.1,0,0.1,0l0,0
		c0,0,0,0.1-0.1,0.1C7.7,4.7,7.2,5.1,6.5,5.8L6.5,5.8L6.5,5.8L6.5,5.8L6.5,5.8c0.6-0.4,1-0.7,1.3-1C7.9,4.7,8,4.6,8,4.5
		c0.1-0.1,0.1-0.1,0.1-0.2c0,0,0-0.1-0.1-0.1C8,4.2,8,4.1,7.9,4.1c-0.3,0-1-0.1-1.9-0.1l0,0.1L6,4C5.7,3.4,5.5,2.9,5.4,2.5
		C5.3,2.4,5.2,2.2,5.2,2.1c0,0-0.1-0.1-0.1-0.1C5.1,2,5,2,5,2c0,0-0.1,0-0.1,0C4.8,2.1,4.7,2.3,4.6,2.7C4.5,3,4.3,3.4,4,4l0.1,0
		l0-0.1C3.3,4.1,2.8,4.1,2.4,4.1c-0.2,0-0.3,0-0.4,0.1c0,0-0.1,0-0.1,0.1c0,0-0.1,0.1-0.1,0.1c0,0.1,0.1,0.1,0.1,0.2
		c0.2,0.2,0.7,0.6,1.5,1.3l0,0l-0.1,0c-0.1,0.6-0.3,1-0.4,1.4C3,7.5,3,7.7,3,7.8C3,7.9,3,7.9,3,8C3,8,3.1,8,3.1,8
		c0.1,0,0.1,0,0.2-0.1c0.3-0.2,0.8-0.5,1.7-1l0,0l0,0c0.6,0.3,1,0.6,1.3,0.8c0.2,0.1,0.3,0.2,0.4,0.2C6.7,8,6.8,8,6.9,8
		C6.9,8,7,8,7,7.9c0,0,0-0.1,0-0.1C7,7.7,7,7.4,6.9,7.1C6.8,6.8,6.7,6.3,6.5,5.8L6.5,5.8L6.5,5.8L6.5,5.8z M8.5,4.2L8.5,4.2
		c0-0.2-0.2-0.3-0.4-0.4C7.9,3.7,7.7,3.7,7.6,3.7l0,0.1l0-0.1c-0.5,0-0.9-0.1-1.4-0.1l0,0.1l0.1,0C6.1,3.2,5.9,2.8,5.7,2.4l-0.1,0
		l0.1,0C5.7,2.2,5.6,2.1,5.5,1.9C5.4,1.7,5.2,1.6,5,1.6c-0.2,0-0.4,0.1-0.5,0.3C4.4,2.1,4.3,2.2,4.3,2.4C4.1,2.8,4,3.2,3.8,3.7
		l0.1,0l0-0.1c-0.5,0-0.9,0.1-1.4,0.1l0,0.1l0-0.1c-0.2,0-0.4,0-0.5,0.1C1.7,3.8,1.6,3.9,1.5,4.2c0,0.1,0,0.1,0,0.2
		c0,0.3,0.3,0.6,0.5,0.8l0,0l0,0C2.4,5.4,2.7,5.7,3.1,6l0,0l-0.1,0C2.9,6.3,2.8,6.8,2.7,7.2v0l0,0c0,0.2-0.1,0.4-0.1,0.6
		c0,0.2,0.1,0.4,0.2,0.5l0,0l0,0C2.9,8.4,3,8.4,3.1,8.4c0.3,0,0.5-0.2,0.7-0.3l0,0C4.3,7.8,4.6,7.6,5,7.3l0,0l0,0
		c0.4,0.2,0.8,0.5,1.2,0.7h0c0.2,0.1,0.5,0.3,0.7,0.3c0.1,0,0.2,0,0.3-0.1l0,0l0,0C7.3,8.2,7.4,8,7.4,7.8c0-0.2-0.1-0.4-0.1-0.6v0v0
		C7.2,6.8,7.1,6.3,6.9,5.9l-0.1,0l0,0C7.3,5.7,7.6,5.4,8,5.1l0,0l0,0c0.2-0.2,0.5-0.4,0.5-0.8C8.5,4.3,8.5,4.2,8.5,4.2L8.5,4.2
		L8.5,4.2c0,0.1,0,0.1,0,0.1c0,0.3-0.3,0.5-0.5,0.7l0,0l0,0C7.6,5.3,7.2,5.6,6.9,5.9l0,0l0,0c0.1,0.4,0.2,0.9,0.3,1.3l0.1,0l-0.1,0
		c0,0.2,0.1,0.4,0.1,0.5c0,0.2,0,0.3-0.2,0.4l0,0l0,0C7,8.2,7,8.3,6.9,8.3C6.6,8.3,6.4,8.1,6.2,8v0C5.8,7.7,5.4,7.5,5,7.2l0,0l0,0
		C4.6,7.5,4.2,7.7,3.8,8h0C3.6,8.1,3.3,8.3,3.1,8.3C3,8.3,3,8.3,2.9,8.2l0,0h0C2.8,8.1,2.7,8,2.7,7.8c0-0.2,0.1-0.4,0.1-0.5l0,0
		c0.1-0.5,0.2-0.9,0.4-1.3l0,0l0,0C2.8,5.6,2.4,5.3,2.1,5l0,0l0,0C1.9,4.8,1.6,4.6,1.6,4.3c0,0,0-0.1,0-0.1C1.6,4,1.8,4,1.9,3.9
		c0.2,0,0.4-0.1,0.5-0.1h0l0,0c0.5,0,0.9-0.1,1.4-0.1l0,0l0,0c0.2-0.4,0.3-0.9,0.5-1.3C4.5,2.3,4.5,2.1,4.6,2C4.7,1.8,4.8,1.7,5,1.7
		c0.2,0,0.3,0.1,0.4,0.2c0.1,0.1,0.2,0.3,0.2,0.5l0,0v0c0.2,0.4,0.3,0.8,0.5,1.3l0,0l0,0c0.5,0,0.9,0.1,1.4,0.1l0,0h0
		c0.2,0,0.4,0,0.5,0.1C8.2,4,8.4,4,8.5,4.2L8.5,4.2z"/>
</g>
</svg>
