<svg xmlns="http://www.w3.org/2000/svg" width="21.027" height="19.894" viewBox="0 0 21.027 19.894"><g transform="translate(-0.5 -0.607)" opacity="0.54"><path d="M12.027,19.894h-5c0-.009,0-.1,0-.241.016-3.558.048-11.924,0-12.759h5V8.378l0,0a6.3,6.3,0,0,1,3.936-1.438,4.6,4.6,0,0,1,3.641,1.591,7.206,7.206,0,0,1,1.42,4.712v6.653h-5v-7a2,2,0,1,0-4,0v7Zm-7,0h-5v-13h5v13Zm-2.51-15h-.03A2.433,2.433,0,0,1,0,2.412,2.4,2.4,0,0,1,2.547,0,2.413,2.413,0,0,1,5.065,2.447a2.42,2.42,0,0,1-.685,1.71A2.54,2.54,0,0,1,2.517,4.893Z" transform="translate(0.5 0.607)" fill="#fff"/></g></svg>