<svg xmlns="http://www.w3.org/2000/svg" width="31.395" height="31.689" viewBox="0 0 31.395 31.689"><g transform="translate(0 -0.059)" opacity="0.54"><path d="M0,3.961A3.955,3.955,0,1,1,3.955,7.922,3.958,3.958,0,0,1,0,3.961" transform="translate(23.484 23.826)" fill="#fff"/><path d="M0,21.786H1.978V0H0Z" transform="translate(18.54 9.714)" fill="#fff"/><path d="M0,21.786H1.978V0H0Z" transform="translate(14.585 9.714)" fill="#fff"/><path d="M0,21.786H1.978V0H0Z" transform="translate(10.63 9.714)" fill="#fff"/><path d="M0,1.981H31.148V0H0Z" transform="translate(0 7.981)" fill="#fff"/><path d="M0,1.98H31.148V0H0Z" transform="translate(0 4.02)" fill="#fff"/><path d="M0,1.98H31.148V0H0Z" transform="translate(0 0.059)" fill="#fff"/><path d="M0,3.961A3.955,3.955,0,1,1,3.955,7.922,3.958,3.958,0,0,1,0,3.961" transform="translate(23.484 23.826)" fill="#fff"/><path d="M0,21.786H1.978V0H0Z" transform="translate(18.54 9.714)" fill="#fff"/><path d="M0,21.786H1.978V0H0Z" transform="translate(14.585 9.714)" fill="#fff"/><path d="M0,21.786H1.978V0H0Z" transform="translate(10.63 9.714)" fill="#fff"/><path d="M0,1.981H31.148V0H0Z" transform="translate(0 7.981)" fill="#fff"/><path d="M0,1.98H31.148V0H0Z" transform="translate(0 4.02)" fill="#fff"/><path d="M0,1.98H31.148V0H0Z" transform="translate(0 0.059)" fill="#fff"/></g></svg>