<?xml version="1.0" encoding="utf-8"?>
<!-- Generator: Adobe Illustrator 25.2.0, SVG Export Plug-In . SVG Version: 6.00 Build 0)  -->
<svg version="1.1" id="Capa_1" xmlns="http://www.w3.org/2000/svg" xmlns:xlink="http://www.w3.org/1999/xlink" x="0px" y="0px"
	 viewBox="0 0 310.3 310.3" style="enable-background:new 0 0 310.3 310.3;" xml:space="preserve">
<style type="text/css">
	.st0{fill:#00ABE0;}
</style>
<path class="st0" d="M158.6,0C70.3-1.9-1.9,70.3,0,158.6c1.8,82.6,69,149.8,151.6,151.6c88.3,2,160.5-70.3,158.6-158.6
	C308.4,69,241.2,1.9,158.6,0z M167.5,248.5h-24.4v-134h24.4V248.5z M154.7,91.8c-8.6,0-14.7-6.6-14.7-15c0-8.6,6.4-15.2,15.2-15.2
	c9.1,0,15,6.6,15,15.2C170.5,85.1,164.4,91.8,154.7,91.8z"/>
</svg>
