<?xml version="1.0" encoding="utf-8"?>
<!-- Generator: Adobe Illustrator 25.2.0, SVG Export Plug-In . SVG Version: 6.00 Build 0)  -->
<svg version="1.1" xmlns="http://www.w3.org/2000/svg" xmlns:xlink="http://www.w3.org/1999/xlink" x="0px" y="0px"
	 viewBox="0 0 512 512" style="enable-background:new 0 0 512 512;" xml:space="preserve">
<style type="text/css">
	.st0{opacity:0.2;enable-background:new    ;}
	.st1{fill:#FFFFFF;}
	.st2{fill:#F9F9F9;}
</style>
<g id="Layer_1" focusable="false">
	<path class="st0" d="M256,8C119,8,8,119,8,256s111,248,248,248s248-111,248-248S393,8,256,8z"/>
	<g transform="translate(256 256)">
		<g transform="scale(0.6, 0.6)">
			<path class="st1" d="M0-176c-52.9,0-96,43.1-96,96c0,8.8,7.2,16,16,16s16-7.2,16-16c0-35.3,28.7-64,64-64c8.8,0,16-7.2,16-16
				S8.8-176,0-176z M-79.9,203.2c0,3.1,0.9,6.2,2.7,8.8l24.5,36.8c3,4.5,8,7.1,13.3,7.1h78.9c5.4,0,10.4-2.7,13.3-7.1L77.3,212
				c1.7-2.6,2.7-5.7,2.7-8.8L80,160H-80L-79.9,203.2z M0-256c-102.3,0-176,83-176,176c0,44.4,16.4,84.9,43.6,115.8
				c16.6,19,42.7,58.8,52.4,92.2v0.1h48v-0.1c0-4.8-0.7-9.5-2.1-14.1C-39.8,96-57,49-96.3,4.1C-116.9-19.3-127.9-49-128-80
				c-0.2-73.6,59.7-128,128-128c70.6,0,128,57.4,128,128c0,31-11.2,60.8-31.6,84.1C57.2,48.8,39.9,95.6,34.2,113.6
				c-1.5,4.6-2.2,9.4-2.2,14.3v0.1h48v0c9.7-33.4,35.8-73.2,52.4-92.2C159.5,4.9,176-35.6,176-80C176-177.2,97.2-256,0-256z"/>
		</g>
	</g>
	<g>
		<path class="st1" d="M103.3,222.6H77.7H103.3z"/>
		<path class="st2" d="M103.3,232.6H77.7c-5.5,0-10-4.5-10-10s4.5-10,10-10h25.7c5.5,0,10,4.5,10,10S108.9,232.6,103.3,232.6z"/>
	</g>
	<g>
		<path class="st1" d="M126.4,123.1l-17-14.1L126.4,123.1z"/>
		<path class="st2" d="M126.3,133.1c-2.3,0-4.5-0.8-6.4-2.3l-17-14.1c-2.4-2-3.6-4.8-3.6-7.7c0-2.3,0.8-4.5,2.3-6.4
			c3.5-4.2,9.8-4.8,14.1-1.3l17,14.1c2.4,2,3.6,4.8,3.6,7.7c0,2.3-0.8,4.5-2.3,6.4C132.1,131.9,129.2,133.1,126.3,133.1z"/>
	</g>
	<g>
		<path class="st1" d="M431.4,222.8h-25.7H431.4z"/>
		<path class="st2" d="M431.4,232.8h-25.7c-5.5,0-10-4.5-10-10s4.5-10,10-10h25.7c5.5,0,10,4.5,10,10S436.9,232.8,431.4,232.8z"/>
	</g>
	<g>
		<path class="st1" d="M387,122.8l17-14.1L387,122.8z"/>
		<path class="st2" d="M387.1,132.8c-2.9,0-5.7-1.2-7.7-3.6c-1.6-1.9-2.3-4.1-2.3-6.4c0-2.9,1.2-5.7,3.6-7.7l17-14.1
			c4.2-3.5,10.6-2.9,14.1,1.3c1.6,1.9,2.3,4.1,2.3,6.4c0,2.9-1.2,5.7-3.6,7.7l-17,14.1C391.6,132.1,389.3,132.8,387.1,132.8z"/>
	</g>
	<g>
		<path class="st1" d="M111.9,326.5l17-14.1L111.9,326.5z"/>
		<path class="st2" d="M111.9,336.5c-2.9,0-5.7-1.2-7.7-3.6c-1.6-1.9-2.3-4.1-2.3-6.4c0-2.9,1.2-5.7,3.6-7.7l17-14.1
			c4.2-3.5,10.6-2.9,14.1,1.3c1.6,1.9,2.3,4.1,2.3,6.4c0,2.9-1.2,5.7-3.6,7.7l-17,14.1C116.4,335.8,114.2,336.5,111.9,336.5z"/>
	</g>
	<g>
		<path class="st1" d="M400.6,326.3l-17-14.1L400.6,326.3z"/>
		<path class="st2" d="M400.6,336.3c-2.3,0-4.5-0.8-6.4-2.3l-17-14.1c-2.4-2-3.6-4.8-3.6-7.7c0-2.3,0.8-4.5,2.3-6.4
			c3.5-4.2,9.8-4.8,14.1-1.3l17,14.1c2.4,2,3.6,4.8,3.6,7.7c0,2.3-0.8,4.5-2.3,6.4C406.3,335,403.4,336.3,400.6,336.3z"/>
	</g>
</g>
<g id="Layer_2">
</g>
</svg>
