<?xml version="1.0" encoding="utf-8"?>
<!-- Generator: Adobe Illustrator 25.2.0, SVG Export Plug-In . SVG Version: 6.00 Build 0)  -->
<svg version="1.1" id="Layer_1" xmlns="http://www.w3.org/2000/svg" xmlns:xlink="http://www.w3.org/1999/xlink" x="0px" y="0px"
	 viewBox="0 0 512 512" style="enable-background:new 0 0 512 512;" xml:space="preserve">
<style type="text/css">
	.st0{opacity:0.2;enable-background:new    ;}
	.st1{display:none;}
	.st2{display:inline;}
	.st3{fill:#FFFFFF;}
	.st4{fill:none;stroke:#FFFFFF;stroke-width:56;stroke-linecap:round;stroke-linejoin:round;}
	.st5{fill:none;stroke:#FFFFFF;stroke-width:56;stroke-linecap:round;stroke-miterlimit:10;}
	.st6{fill:none;stroke:#FFFFFF;stroke-width:40;stroke-linecap:round;stroke-miterlimit:10;}
	.st7{display:inline;clip-path:url(#SVGID_2_);fill:none;stroke:#FFFFFF;stroke-width:17;stroke-linejoin:round;}
	.st8{display:none;fill:none;stroke:#FFFFFF;stroke-width:20;stroke-linecap:round;stroke-linejoin:round;}
</style>
<g id="Layer_1_1_" focusable="false">
	<path class="st0" d="M256,8C119,8,8,119,8,256s111,248,248,248s248-111,248-248S393,8,256,8z"/>
	<g transform="translate(255.4 256)" class="st1">
		<g transform="scale(0.6, 0.6)" class="st2">
			<path class="st3" d="M-1.7-291c-30,0-54.3,24.3-54.3,54.3s24.3,54.3,54.3,54.3s54.3-24.3,54.3-54.3S28.3-291-1.7-291z"/>
		</g>
	</g>
</g>
<g id="Layer_2_1_" class="st1">
	<g class="st2">
		<path class="st4" d="M201,207h64v172"/>
		<path class="st5" d="M192,383h138"/>
		<path class="st6" d="M5-13"/>
	</g>
</g>
<g class="st1">
	<defs>
		<rect id="SVGID_1_" x="88.5" y="81" width="336" height="336"/>
	</defs>
	<clipPath id="SVGID_2_" class="st2">
		<use xlink:href="#SVGID_1_"  style="overflow:visible;"/>
	</clipPath>
	<path class="st7" d="M379.5,368.9V111c0-9.9-8.1-18-18-18h-204c-9.9,0-18,8.1-18,18v264c0.1,16.5,13.5,29.9,30,30 M166.5,405h189.3
		c12.8,0,23.3-10.3,23.6-23.1c0.1-4,0.1-8.4,0.1-12.9V153"/>
</g>
<path class="st8" d="M187.5,163h144 M187.5,244h144 M187.5,325h144"/>
<path class="st3" d="M398.4,377.4V191.2c0-11.2-4.4-21.9-12.4-29.9L336.6,112c-9.6-9.6-22.6-15-36.2-15H148.9
	c-10.6,0-19.2,8.6-19.2,19.2v268.6c0,10.6,8.6,19.2,19.2,19.2h222.9C386.5,404,398.4,392.1,398.4,377.4z M371.2,173.8h-49.5
	c0,0,0,0,0,0v-49.5c0,0,0,0,0.1,0L371.2,173.8C371.2,173.7,371.2,173.8,371.2,173.8z M356.4,384.8H171.6
	c-12.5,0-22.7-10.1-22.7-22.7V134.9c0-10.3,8.4-18.7,18.7-18.7h111.8c12.7,0,23,10.3,23,23v34.5c0,10.6,8.6,19.2,19.2,19.2h57.5
	c0,0,0,0,0,0v169.1C379.2,374.6,369,384.8,356.4,384.8z M177.7,327.2h172.4c5.2,0,9.7,4,9.9,9.2c0.2,5.5-4.1,10-9.6,10H178
	c-5.2,0-9.7-4-9.9-9.2C167.9,331.8,172.3,327.2,177.7,327.2z M177.7,269.7h172.4c5.2,0,9.7,4,9.9,9.2c0.2,5.5-4.1,10-9.6,10H178
	c-5.2,0-9.7-4-9.9-9.2C167.9,274.2,172.3,269.7,177.7,269.7z M177.7,212.1h172.4c5.2,0,9.7,4,9.9,9.2c0.2,5.5-4.1,10-9.6,10H178
	c-5.2,0-9.7-4-9.9-9.2C167.9,216.6,172.3,212.1,177.7,212.1z"/>
</svg>
