<?xml version="1.0" standalone="yes"?><svg xmlns="http://www.w3.org/2000/svg" width="18" height="18" viewBox="0 0 18 18" fill="none" style="zoom: 16;"><path d="M9,0 C13.9706,0 18,4.02944 18,9 C18,13.9706 13.9706,18 9,18 C4.029442,18 0,13.9706 0,9 C0,4.02944 4.029442,0 9,0 M9,12.375 C8.378681,12.375 7.875,12.8787 7.875,13.5 C7.875,14.1213 8.378681,14.625 9,14.625 C9.621319,14.625 10.125,14.1213 10.125,13.5 C10.125,12.8787 9.621319,12.375 9,12.375 M10.7868,3.916901 H7.314011 L7.875,11.25 H10.125 L10.7868,3.916901 " fill-rule="evenodd" fill="#a35dff" clip-rule="evenodd"></path></svg>