<svg xmlns="http://www.w3.org/2000/svg" width="22.444" height="18" viewBox="0 0 22.444 18"><g transform="translate(0 -0.5)" opacity="0.54"><path d="M22.444,2.334a2.427,2.427,0,0,1-2.228.016c.939-.562.982-.956,1.321-2.019a9.128,9.128,0,0,1-2.886,1.1A4.549,4.549,0,0,0,10.908,5.58,12.9,12.9,0,0,1,1.542.831,4.549,4.549,0,0,0,2.948,6.9,4.535,4.535,0,0,1,.89,6.331c0,.019,0,.037,0,.057a4.548,4.548,0,0,0,3.646,4.456,4.561,4.561,0,0,1-2.053.078,4.551,4.551,0,0,0,4.245,3.156A9.134,9.134,0,0,1,0,15.959,12.862,12.862,0,0,0,6.965,18,12.839,12.839,0,0,0,19.893,5.071c0-.2,0-.392-.012-.588a9.707,9.707,0,0,0,2.563-2.149" transform="translate(0 0.5)" fill="#fff"/></g></svg>